<svg width="75" height="66" viewBox="0 0 75 66" fill="none" xmlns="http://www.w3.org/2000/svg">
<g clip-path="url(#clip0_115_319)">
<path d="M44.7174 53.3919C43.8865 54.464 42.9157 55.4322 41.8483 56.6295L39.7977 55.7346C40.8526 54.7939 41.6741 54.1738 42.3618 53.4317C45.4331 50.1025 46.6654 46.1838 46.4911 41.694C46.2204 34.8189 41.0206 31.1201 33.1883 31.7188C31.5826 37.1707 29.9551 42.6989 28.2437 48.5082L26.75 47.1001C28.5082 41.1473 30.1947 35.445 31.9 29.6724C35.0771 29.5075 37.996 29.9198 40.7717 30.8819C43.9892 31.9967 46.4289 34.1225 47.4526 37.4089C49.2419 43.1509 48.4702 48.5417 44.7174 53.3919Z" fill="#9214F1"/>
<path d="M70.0837 54.0271C69.9312 56.3545 68.9696 58.2481 67.2115 59.7172C64.4949 61.9805 61.1778 62.5486 57.761 62.4294C53.3205 62.2737 49.0979 60.9817 44.9872 59.4546C38.7076 57.1211 33.01 53.7431 27.6951 49.7206C20.3824 44.1893 13.9192 37.9371 9.4694 29.8738C7.69257 26.6485 6.62523 23.3163 6.64079 19.5931C6.65324 15.9219 8.32737 13.3929 11.5232 11.7772C14.6878 10.1768 18.1108 10.1615 21.5337 10.6441C23.463 10.9159 25.3612 11.3924 27.387 11.7986L27.1132 13.0386C26.1236 12.9042 25.2305 12.8279 24.3592 12.6538C21.0359 11.9818 17.7 11.768 14.3424 12.3361C11.2867 12.8554 9.03686 15.0361 8.32426 17.9835C7.74547 20.3628 8.2558 22.6291 8.95595 24.8526C10.35 29.2874 12.9639 33.0595 15.8859 36.6391C16.7012 37.6378 17.5911 38.5755 18.4438 39.5406L20.6998 41.9383L20.8087 42.0543C20.8865 42.1337 20.9736 42.2101 21.0701 42.2895C22.1841 43.1905 23.183 44.2259 24.2659 45.1666C24.9847 45.7897 25.7689 46.3395 26.7491 47.1L28.2427 48.508C32.12 50.9331 35.8884 53.291 39.7968 55.7345L41.8474 56.6294C43.1481 57.1333 44.4146 57.4479 45.4882 58.074C46.2319 58.5077 46.9352 58.7643 47.6198 58.8681L51.7895 59.8913C55.3121 61.0764 58.5794 60.9176 61.8001 60.5266C63.1693 60.3617 64.6225 59.7417 65.7396 58.9323C68.3566 57.0386 69.0505 54.3386 68.5402 51.2385C67.9957 47.9277 66.6016 44.9559 64.9523 42.0726C64.6225 41.5015 64.2646 40.9426 63.885 40.3989C63.5116 39.8613 63.0977 39.3543 62.7025 38.832L62.3385 35.8602C63.3933 37.1491 64.3984 38.4778 65.3133 39.8583C68.1575 44.1434 70.4353 48.6577 70.0837 54.0271Z" fill="#9DFBC1"/>
<path d="M74.7424 56.8708C74.0049 60.4931 71.8267 62.8144 68.6029 64.3873C64.6167 66.3329 60.366 66.1527 56.1309 65.719C52.3128 65.3281 48.6409 64.2774 45.0561 62.9243C44.1972 62.6006 43.245 62.5212 42.2897 62.3196L40.6903 61.3728C39.3024 60.7161 37.955 59.9342 36.5049 59.4486L33.0042 57.7107C30.9535 56.4523 28.9433 55.2184 26.7028 53.847L25.1563 52.6681C22.8816 50.9332 20.6224 49.2076 18.1641 47.3292L16.7856 46.361C13.6427 42.873 10.5558 39.669 7.73347 36.2513C4.79284 32.69 2.46523 28.7194 1.02448 24.3304C-0.0210746 21.154 -0.403823 17.8889 0.532821 14.6086C1.31699 11.8659 3.19339 9.92948 5.67347 8.58559C7.87039 7.39137 10.254 6.85687 12.7994 6.75302C17.7316 6.55144 22.4926 7.23255 27.1447 8.80245C27.3812 8.88186 27.6364 8.9124 27.8667 8.96432L27.7982 10.3571C25.4768 9.82258 23.2955 9.25448 21.0892 8.82383C17.0501 8.03277 12.9861 7.73956 8.9564 8.84826C5.44943 9.81342 2.70484 11.7834 1.93312 15.415C1.52237 17.3544 1.63128 19.4711 1.89578 21.4563C2.4559 25.6254 4.52523 29.2753 6.89951 32.6472C14.542 43.5174 24.6771 51.6632 36.5423 57.7473C42.7876 60.9543 49.3068 63.5444 56.4296 64.2102C60.0922 64.5523 63.7952 64.763 67.3146 63.4161C70.4295 62.2249 72.586 60.148 73.199 56.7364C73.8929 52.8635 72.9781 49.2259 71.3444 45.8081C67.8934 38.5817 62.5754 32.7236 56.551 27.2442L58.194 26.3065C59.4854 27.7329 60.6679 29.1256 61.9437 30.4268C67.0439 35.6282 71.4408 41.3031 73.8307 48.2027C74.786 50.9607 75.3617 53.8379 74.7424 56.8708Z" fill="#9DFBC1"/>
<path d="M42.2902 62.3195C40.1587 63.7122 37.8279 63.7092 35.5812 63.7367C27.0487 63.8374 18.5163 63.8069 9.98067 63.8252C7.87399 63.8313 5.76732 63.8252 3.66687 63.8252C3.26234 62.799 3.39304 62.0232 4.30168 60.1723C5.3908 59.9646 6.57638 59.8241 7.70907 59.5034C10.9111 58.5994 13.3601 56.8859 14.3527 53.5354C15.0995 51.0217 16.0331 48.5599 16.7861 46.3608L18.1646 47.3291C17.7228 48.7737 17.3805 49.9802 16.9822 51.1652C16.4656 52.7076 16.0051 54.2775 15.3329 55.7528C13.9606 58.7826 11.2783 60.2242 8.18206 61.0978C7.36366 61.3299 6.37101 61.1955 5.61796 62.1209C6.10651 62.1851 6.40524 62.2584 6.70086 62.2584C16.4345 62.2523 26.1681 62.2584 35.9018 62.2004C37.4825 62.1912 39.0633 61.8919 40.6441 61.7269C40.6597 61.6078 40.6752 61.4918 40.6908 61.3726L42.2902 62.3195Z" fill="#9214F1"/>
<path d="M62.7041 38.832C63.7901 48.1873 60.14 55.0411 51.7911 59.8913L47.6213 58.8681C49.2177 59.1124 50.7051 58.5321 52.3232 57.4845C56.661 54.6807 59.4647 50.9728 60.5912 46.0096C62.0226 39.6933 59.9284 34.3331 54.5575 31.1902C52.8958 30.2189 50.9602 29.6967 49.1461 28.9728C48.7229 28.8048 48.2935 28.649 47.864 28.4902C47.8796 28.3497 47.8952 28.2123 47.9076 28.0748C48.3837 27.9527 48.866 27.858 49.3297 27.7022C51.6231 26.9356 54.0347 26.3919 56.1756 25.3321C62.8752 22.0121 64.1262 15.0239 61.4749 9.17187C59.7323 5.33264 56.104 3.59169 52.1987 2.69984C49.4044 2.05844 46.4668 1.8141 43.5885 1.76523C36.8141 1.65223 30.0367 1.75607 23.2592 1.80494C22.8547 1.80799 22.4502 2.11648 22.0425 2.28446C22.055 2.42496 22.0643 2.56546 22.0736 2.70595C22.4782 2.86172 22.8703 3.04803 23.281 3.1641C24.4728 3.50617 25.6833 3.78717 26.8689 4.14452C29.9184 5.06691 30.3198 5.65944 30.0024 8.73816C29.9402 9.33986 29.8375 9.95071 29.6633 10.531C28.1789 15.4912 26.7195 20.4605 25.1667 25.4023C23.6451 30.2434 22.0363 35.06 20.4275 39.8766C20.1537 40.7012 20.1848 41.3426 20.7013 41.9382L18.4453 39.5406C18.5822 39.5009 18.7191 39.4581 18.8561 39.4154C21.6255 30.5763 24.3919 21.7372 27.1147 13.0386L27.3886 11.7986C27.4975 11.4168 27.6002 11.0594 27.7993 10.3569L27.8678 8.96418C28.8915 7.22629 28.6021 6.41996 26.7755 5.90684C24.6004 5.29598 22.4159 4.71262 20.0448 4.06511C20.1817 2.96251 20.2004 1.94544 20.4804 1.00472C20.5987 0.604606 21.2304 0.265581 21.7002 0.0853778C22.1079 -0.0703906 22.6213 0.0365093 23.0881 0.0365093C30.3354 0.0365093 37.5827 0.0120751 44.8301 0.054835C48.8971 0.0792693 52.818 0.766483 56.5801 2.44634C66.3418 6.8048 67.1104 19.9107 59.0758 25.5917C58.7086 25.8513 58.3787 26.1567 58.1951 26.3064L56.5521 27.2441C56.0604 27.4731 55.5314 27.7205 55.0056 27.9649C54.9029 28.1817 54.7971 28.3986 54.6944 28.6154C55.1362 28.8812 55.6341 29.0919 56.0107 29.4279C57.4514 30.7137 58.9762 31.9385 60.2396 33.3801C60.9522 34.1926 61.6554 35.0172 62.34 35.8571L62.7041 38.832Z" fill="#9214F1"/>
<path d="M50.8867 11.5787C50.4977 6.90563 47.4451 4.19953 42.6716 4.34308C40.1168 4.4225 39.8803 4.5691 39.1211 6.87814C37.0922 13.0539 35.0789 19.2358 33.0655 25.4207C32.8508 26.0804 32.6952 26.7585 32.4961 27.4854C32.8695 27.6748 33.0002 27.7939 33.1402 27.803C37.9666 28.1726 42.4507 27.2655 46.1661 24.0585C49.9936 20.7599 51.2943 16.4686 50.8867 11.5787ZM47.7593 18.5913L46.9783 19.868C46.8974 20.2223 46.8912 20.4269 46.8071 20.5919C46.7169 20.7599 46.5551 20.8851 46.4275 21.0286L45.0957 22.1068C43.7296 24.4983 37.9448 26.6516 34.9015 25.9002C35.7448 23.2766 36.5819 20.6621 37.5527 17.6323L38.284 16.0043C38.2778 15.7753 38.3898 15.4943 38.6823 15.1186L38.9873 13.4479C39.7061 11.1358 40.4373 8.79623 41.1344 6.55438C43.6674 5.38154 46.7636 6.28561 48.1826 8.50302C49.7042 10.8823 49.5144 16.1418 47.7593 18.5913Z" fill="#9214F1"/>
<path d="M47.7606 18.5914L46.9796 19.8681C44.2132 18.2646 41.4562 16.6703 38.7116 15.082C38.7023 15.0943 38.6929 15.1065 38.6836 15.1187L38.9885 13.448C42.0256 15.2286 44.8449 16.881 47.7606 18.5914Z" fill="#9DFBC1"/>
<path d="M46.4295 21.0287L45.0976 22.1069C42.7078 20.6897 40.3117 19.2664 37.5547 17.6323L38.286 16.0044C38.3015 16.3556 38.6002 16.5664 38.9519 16.7741C41.2826 18.1577 43.604 19.5504 45.9347 20.931C46.0561 21.0012 46.2272 20.989 46.4295 21.0287Z" fill="#9DFBC1"/>
<path d="M36.5053 59.4485C35.6496 59.1644 34.5884 59.1705 33.686 59.3507C30.3284 60.0227 27.0424 59.7692 23.4141 59.0025C24.0177 56.8096 24.5748 54.7846 25.1567 52.668L26.7032 53.8469C26.3267 55.1786 26.0186 56.269 25.611 57.7106H33.0046L36.5053 59.4485Z" fill="#9214F1"/>
</g>
<defs>
<clipPath id="clip0_115_319">
<rect width="75" height="66" fill="white"/>
</clipPath>
</defs>
</svg>
